<svg id="Group_4055" data-name="Group 4055" xmlns="http://www.w3.org/2000/svg" width="136.218" height="126.745" viewBox="0 0 136.218 126.745">
  <g id="Group_3787" data-name="Group 3787">
    <g id="Group_3785" data-name="Group 3785">
      <path id="Path_4755" data-name="Path 4755" d="M93.595,192.962a13.471,13.471,0,0,1-17.017,7.784c-6.446-2.261-14.38-7.188-17.915-17.931-6.451-19.6,7.193-14.885-7.195-28.779s-.248-14.14-.993-25.552,8.932-10.42,12.653-6.7,7.195,10.916,13.4,10.916,7.938,6.2,5.21,13.4,3.473,10.42,8.682,14.39C94.4,163.523,98.53,180.488,93.595,192.962Z" transform="translate(-26.066 -119.249)" fill="#528e94"/>
      <path id="Path_4756" data-name="Path 4756" d="M99.5,201.308A13.473,13.473,0,0,1,81.34,196.8c-3.635-5.786-6.77-14.584-2.844-25.189,7.163-19.35,14.9-7.162,12.3-26.994s8.614-11.216,15.141-20.607,13.479-2.586,14.071,2.643-1.173,13.021,3.679,16.884,2.346,9.8-4.269,13.725-3.775,10.315-2.172,16.665C118.472,178.781,111.133,194.625,99.5,201.308Z" transform="translate(-7.715 -119.2)" fill="#528e94"/>
      <path id="Path_4757" data-name="Path 4757" d="M95.734,182.048c-5.4-4.35-13.115-6.409-16.164-12.632-1.844-3.766-1.483-8.238-2.79-12.222a15.378,15.378,0,0,0-10.135-9.8c-3.617-1.051-7.526-.729-11.139-1.8-5.869-1.737-11.293-7.084-17.138-5.272a7.861,7.861,0,0,0-5.36,7.665c.155,3.107,2.147,5.779,3.251,8.69,1.647,4.342,1.28,9.168.587,13.76a17.032,17.032,0,0,0-.278,5.441c.673,3.848,4.137,6.669,7.807,8s7.642,1.528,11.478,2.259,7.795,2.163,10.173,5.261c2.3,2.989,2.736,7.009,4.6,10.283,2.891,5.074,8.936,7.7,14.77,7.973,7.046.327,17.558-.333,18.228-8.695A22.353,22.353,0,0,0,95.734,182.048Z" transform="translate(-33 -107.262)" fill="#5fa4ab"/>
      <path id="Path_4758" data-name="Path 4758" d="M108.894,204.255c3.461-6,4.3-13.951,9.975-17.926,3.436-2.4,7.91-2.741,11.642-4.65a15.376,15.376,0,0,0,8.109-11.53c.48-3.737-.447-7.55.051-11.284.805-6.066,5.248-12.255,2.55-17.748a7.856,7.856,0,0,0-8.4-4.107c-3.047.633-5.378,3.017-8.082,4.558-4.034,2.3-8.859,2.686-13.5,2.712a17.027,17.027,0,0,0-5.419.568c-3.7,1.26-5.948,5.12-6.7,8.954s-.325,7.785-.452,11.688-.93,8.036-3.62,10.866c-2.6,2.731-6.5,3.789-9.448,6.14-4.564,3.642-6.225,10.023-5.588,15.828.77,7.01,3.052,17.295,11.415,16.66A22.35,22.35,0,0,0,108.894,204.255Z" transform="translate(-5.863 -109.052)" fill="#5fa4ab"/>
      <path id="Path_4759" data-name="Path 4759" d="M100.413,197.036c-.748-6.888-4.759-13.8-2.521-20.359,1.355-3.968,4.77-6.879,6.656-10.623a15.375,15.375,0,0,0-.256-14.094c-1.817-3.3-4.814-5.832-6.615-9.14-2.929-5.373-2.994-12.991-8.412-15.834a7.858,7.858,0,0,0-9.206,1.64c-2.087,2.31-2.561,5.608-3.837,8.448-1.9,4.236-5.569,7.4-9.3,10.157a17.015,17.015,0,0,0-4.039,3.655c-2.24,3.2-1.781,7.643-.125,11.18s4.329,6.48,6.53,9.705,3.991,7.037,3.488,10.91c-.486,3.737-3.014,6.893-4.006,10.529-1.536,5.635.886,11.767,4.827,16.077,4.757,5.207,12.667,12.163,19.046,6.718A22.355,22.355,0,0,0,100.413,197.036Z" transform="translate(-16.587 -115.248)" fill="#5fa4ab"/>
    </g>
    <g id="Group_3786" data-name="Group 3786" transform="translate(8.202 2.041)">
      <line id="Line_125" data-name="Line 125" x2="36.551" y2="49.452" transform="translate(0 37.378)" fill="none" stroke="#051934" stroke-miterlimit="10" stroke-width="0.629"/>
      <line id="Line_126" data-name="Line 126" y2="72.937" transform="translate(61.194 14.554)" fill="none" stroke="#051934" stroke-miterlimit="10" stroke-width="0.629"/>
      <path id="Path_4760" data-name="Path 4760" d="M128.931,140.235c0,.5-39.2,56.564-39.2,56.564" transform="translate(-8.362 -109.141)" fill="none" stroke="#051934" stroke-miterlimit="10" stroke-width="0.629"/>
      <line id="Line_127" data-name="Line 127" x1="23.485" y2="66.652" transform="translate(74.756 1.323)" fill="none" stroke="#051934" stroke-miterlimit="10" stroke-width="0.629"/>
      <line id="Line_128" data-name="Line 128" x2="25.139" y2="66.983" transform="translate(21.17)" fill="none" stroke="#051934" stroke-miterlimit="10" stroke-width="0.629"/>
    </g>
  </g>
  <g id="Group_3789" data-name="Group 3789" transform="translate(32.406 90.689)">
    <path id="Path_4761" data-name="Path 4761" d="M128.43,179.894a2.623,2.623,0,0,0-2.559-3.205H56.151a2.623,2.623,0,0,0-2.559,3.205c1.879,8.273,8.643,29.9,28.41,32.695l.079.156H99.941l.081-.156C119.788,209.794,126.551,188.167,128.43,179.894Z" transform="translate(-53.525 -176.689)" fill="#ffbf67"/>
    <g id="Group_3788" data-name="Group 3788" transform="translate(1.72 4.797)">
      <line id="Line_129" data-name="Line 129" x2="71.283" fill="none" stroke="#051934" stroke-miterlimit="10" stroke-width="0.629"/>
      <line id="Line_130" data-name="Line 130" x2="65.991" transform="translate(2.646 7.939)" fill="none" stroke="#051934" stroke-miterlimit="10" stroke-width="0.629"/>
      <line id="Line_131" data-name="Line 131" x2="50.775" transform="translate(10.254 18.524)" fill="none" stroke="#051934" stroke-miterlimit="10" stroke-width="0.629"/>
      <line id="Line_132" data-name="Line 132" x2="27.289" transform="translate(21.997 29.109)" fill="none" stroke="#051934" stroke-miterlimit="10" stroke-width="0.629"/>
    </g>
  </g>
</svg>
