<svg xmlns="http://www.w3.org/2000/svg" width="16.691" height="9.464" viewBox="0 0 16.691 9.464">
  <path id="Path_1425" data-name="Path 1425" d="M.941,16.685A2.971,2.971,0,0,1,.4,16.409a1.066,1.066,0,0,1-.151-1.518c.453-.493.927-.953,1.4-1.426L6.679,8.437c.026-.026.053-.059.105-.118-.085-.072-.171-.145-.25-.217Q3.458,5.036.389,1.963A1.129,1.129,0,0,1,.165.543,1.1,1.1,0,0,1,1.782.234c.361.322.7.67,1.038,1.012.519.513,1.032,1.025,1.545,1.545L6.041,4.467l1.7,1.7c.493.493.992.979,1.466,1.485a1.077,1.077,0,0,1,0,1.406c-.381.407-.782.8-1.176,1.2-.559.565-1.124,1.124-1.683,1.683-.513.513-1.032,1.025-1.545,1.544L3.123,15.154l-1.2,1.2a1.519,1.519,0,0,1-.624.335C1.171,16.685,1.059,16.685.941,16.685Z" transform="translate(16.691) rotate(90)" fill="#fff" opacity="0.522"/>
</svg>
