<svg xmlns="http://www.w3.org/2000/svg" width="13.287" height="23.435" viewBox="0 0 13.287 23.435">
  <path id="Path_402" data-name="Path 402" d="M1.321,23.426a4.172,4.172,0,0,1-.757-.388,1.5,1.5,0,0,1-.212-2.132c.637-.692,1.3-1.338,1.966-2l7.059-7.059c.037-.037.074-.083.148-.166-.12-.1-.24-.2-.351-.3Q4.855,7.07.546,2.756A1.585,1.585,0,0,1,.232.763,1.537,1.537,0,0,1,2.5.329c.508.452.978.941,1.458,1.421.729.72,1.449,1.44,2.169,2.169L8.482,6.272l2.381,2.381c.692.692,1.393,1.375,2.058,2.085a1.512,1.512,0,0,1,0,1.975c-.535.572-1.1,1.126-1.652,1.679-.784.794-1.578,1.578-2.362,2.362-.72.72-1.449,1.44-2.169,2.169L4.385,21.276,2.7,22.965a2.133,2.133,0,0,1-.877.471C1.644,23.426,1.487,23.426,1.321,23.426Z" transform="translate(13.287 23.435) rotate(180)" fill="#fff"/>
</svg>
